<svg width="15" height="17" viewBox="0 0 15 17" fill="none" xmlns="http://www.w3.org/2000/svg">
<path d="M5 7.5H3.33333V9.16667H5V7.5ZM8.33333 7.5H6.66667V9.16667H8.33333V7.5ZM11.6667 7.5H10V9.16667H11.6667V7.5ZM13.3333 1.66667H12.5V0H10.8333V1.66667H4.16667V0H2.5V1.66667H1.66667C1.22464 1.66667 0.800716 1.84226 0.488155 2.15482C0.175595 2.46738 0 2.89131 0 3.33333V15C0 15.442 0.175595 15.866 0.488155 16.1785C0.800716 16.4911 1.22464 16.6667 1.66667 16.6667H13.3333C13.7754 16.6667 14.1993 16.4911 14.5118 16.1785C14.8244 15.866 15 15.442 15 15V3.33333C15 2.89131 14.8244 2.46738 14.5118 2.15482C14.1993 1.84226 13.7754 1.66667 13.3333 1.66667ZM13.3333 15H1.66667V5.83333H13.3333V15Z" fill="#0C1F3D"/>
</svg>
