<svg width="21" height="21" viewBox="0 0 21 21" fill="none" xmlns="http://www.w3.org/2000/svg">
<path d="M10.4994 17.5C10.7646 17.5 11.019 17.6054 11.2065 17.7929C11.394 17.9804 11.4994 18.2348 11.4994 18.5V19.5C11.4994 19.7652 11.394 20.0196 11.2065 20.2071C11.019 20.3946 10.7646 20.5 10.4994 20.5C10.2342 20.5 9.97981 20.3946 9.79227 20.2071C9.60474 20.0196 9.49938 19.7652 9.49938 19.5V18.5C9.49938 18.2348 9.60474 17.9804 9.79227 17.7929C9.97981 17.6054 10.2342 17.5 10.4994 17.5ZM16.8634 15.45L17.5704 16.157C17.7525 16.3456 17.8533 16.5982 17.8511 16.8604C17.8488 17.1226 17.7436 17.3734 17.5582 17.5588C17.3728 17.7442 17.122 17.8494 16.8598 17.8517C16.5976 17.854 16.345 17.7532 16.1564 17.571L15.4494 16.864C15.2672 16.6754 15.1664 16.4228 15.1687 16.1606C15.171 15.8984 15.2762 15.6476 15.4616 15.4622C15.647 15.2768 15.8978 15.1716 16.16 15.1693C16.4222 15.167 16.6748 15.2678 16.8634 15.45ZM4.13538 15.45C4.31534 15.2707 4.55681 15.1665 4.81076 15.1588C5.06471 15.151 5.31209 15.2402 5.50266 15.4082C5.69322 15.5763 5.81269 15.8106 5.83678 16.0635C5.86087 16.3164 5.78779 16.569 5.63238 16.77L5.54938 16.864L4.84238 17.571C4.66242 17.7503 4.42095 17.8545 4.167 17.8622C3.91305 17.87 3.66567 17.7808 3.4751 17.6128C3.28454 17.4447 3.16508 17.2104 3.14098 16.9575C3.11689 16.7046 3.18997 16.452 3.34538 16.251L3.42838 16.157L4.13538 15.45ZM10.4994 4.5C12.0907 4.5 13.6168 5.13214 14.742 6.25736C15.8672 7.38258 16.4994 8.9087 16.4994 10.5C16.4994 12.0913 15.8672 13.6174 14.742 14.7426C13.6168 15.8679 12.0907 16.5 10.4994 16.5C8.90808 16.5 7.38196 15.8679 6.25674 14.7426C5.13152 13.6174 4.49938 12.0913 4.49938 10.5C4.49938 8.9087 5.13152 7.38258 6.25674 6.25736C7.38196 5.13214 8.90808 4.5 10.4994 4.5ZM2.49938 9.5C2.75426 9.50028 2.99941 9.59788 3.18475 9.77285C3.37009 9.94782 3.48162 10.187 3.49655 10.4414C3.51149 10.6958 3.42871 10.9464 3.26512 11.1418C3.10153 11.3373 2.86948 11.4629 2.61638 11.493L2.49938 11.5H1.49938C1.2445 11.4997 0.999348 11.4021 0.814012 11.2272C0.628676 11.0522 0.517145 10.813 0.502208 10.5586C0.487271 10.3042 0.570055 10.0536 0.733645 9.85817C0.897236 9.66271 1.12928 9.5371 1.38238 9.507L1.49938 9.5H2.49938ZM19.4994 9.5C19.7646 9.5 20.019 9.60536 20.2065 9.79289C20.394 9.98043 20.4994 10.2348 20.4994 10.5C20.4994 10.7652 20.394 11.0196 20.2065 11.2071C20.019 11.3946 19.7646 11.5 19.4994 11.5H18.4994C18.2342 11.5 17.9798 11.3946 17.7923 11.2071C17.6047 11.0196 17.4994 10.7652 17.4994 10.5C17.4994 10.2348 17.6047 9.98043 17.7923 9.79289C17.9798 9.60536 18.2342 9.5 18.4994 9.5H19.4994ZM3.42838 3.429C3.60057 3.25682 3.82967 3.15339 4.0727 3.13811C4.31573 3.12283 4.55598 3.19675 4.74838 3.346L4.84238 3.429L5.54938 4.136C5.72873 4.31596 5.83285 4.55743 5.84061 4.81138C5.84836 5.06533 5.75917 5.31271 5.59113 5.50328C5.4231 5.69384 5.18883 5.81331 4.93591 5.8374C4.68298 5.86149 4.43037 5.78841 4.22938 5.633L4.13538 5.55L3.42838 4.843C3.24091 4.65547 3.13559 4.40116 3.13559 4.136C3.13559 3.87084 3.24091 3.61653 3.42838 3.429ZM17.5704 3.429C17.7579 3.61653 17.8632 3.87084 17.8632 4.136C17.8632 4.40116 17.7579 4.65547 17.5704 4.843L16.8634 5.55C16.7711 5.64551 16.6608 5.72169 16.5388 5.7741C16.4168 5.82651 16.2856 5.8541 16.1528 5.85525C16.02 5.8564 15.8883 5.8311 15.7654 5.78082C15.6425 5.73054 15.5309 5.65629 15.437 5.5624C15.3431 5.4685 15.2688 5.35685 15.2186 5.23395C15.1683 5.11106 15.143 4.97938 15.1441 4.8466C15.1453 4.71382 15.1729 4.5826 15.2253 4.4606C15.2777 4.33859 15.3539 4.22825 15.4494 4.136L16.1564 3.429C16.3439 3.24153 16.5982 3.13621 16.8634 3.13621C17.1285 3.13621 17.3829 3.24153 17.5704 3.429ZM10.4994 0.5C10.7646 0.5 11.019 0.605357 11.2065 0.792893C11.394 0.98043 11.4994 1.23478 11.4994 1.5V2.5C11.4994 2.76522 11.394 3.01957 11.2065 3.20711C11.019 3.39464 10.7646 3.5 10.4994 3.5C10.2342 3.5 9.97981 3.39464 9.79227 3.20711C9.60474 3.01957 9.49938 2.76522 9.49938 2.5V1.5C9.49938 1.23478 9.60474 0.98043 9.79227 0.792893C9.97981 0.605357 10.2342 0.5 10.4994 0.5Z" fill="white"/>
</svg>
